<svg width="48" height="48" viewBox="0 0 48 48" fill="none" xmlns="http://www.w3.org/2000/svg">
<circle cx="24" cy="24" r="21" stroke="currentColor" stroke-width="2" stroke-linecap="round"></circle>
<path d="M17.6095 23.8122C17.6005 24.079 17.6364 24.3458 17.7083 24.6037C17.7892 24.8261 17.888 25.0395 17.9958 25.2441C18.0317 25.3063 18.0587 25.3775 18.0587 25.4486C18.0497 25.5554 17.9868 25.6621 17.888 25.7154L17.322 26.089C17.2501 26.1335 17.1693 26.169 17.0884 26.169C16.9896 26.1601 16.8908 26.1157 16.8189 26.0445C16.7021 25.92 16.5853 25.7777 16.4955 25.6265C16.4056 25.4753 16.3158 25.3063 16.217 25.1018C15.5162 25.92 14.6358 26.3291 13.5756 26.3291C12.821 26.3291 12.2191 26.1157 11.7788 25.6888C11.3386 25.2619 11.114 24.6927 11.114 23.9812C11.114 23.2252 11.3835 22.6115 11.9316 22.1491C12.4796 21.6866 13.2073 21.4554 14.1327 21.4554C14.4471 21.4554 14.7705 21.4821 15.085 21.5265C15.4174 21.571 15.7588 21.6421 16.1181 21.7222V21.0729C16.1181 20.397 15.9744 19.9257 15.6959 19.65C15.4174 19.3742 14.9232 19.2408 14.2315 19.2408C13.9081 19.2408 13.5756 19.2764 13.2612 19.3565C12.9288 19.4365 12.6054 19.5343 12.2909 19.6588C12.1921 19.7033 12.0843 19.7389 11.9765 19.7745C11.9316 19.7923 11.8777 19.8011 11.8327 19.8011C11.707 19.8011 11.6441 19.7122 11.6441 19.5254V19.0896C11.6351 18.9829 11.662 18.8762 11.707 18.7784C11.7788 18.6983 11.8597 18.6361 11.9585 18.5916C12.3179 18.4137 12.6952 18.2803 13.0905 18.1914C13.5487 18.0758 14.0248 18.0224 14.492 18.0224C15.5611 18.0224 16.3427 18.2625 16.8458 18.7428C17.3489 19.2231 17.5915 19.9523 17.5915 20.9306V23.8122H17.6095ZM13.962 25.164C14.2764 25.164 14.5908 25.1107 14.8873 25.004C15.2197 24.8883 15.5072 24.6927 15.7408 24.4348C15.8845 24.2747 15.9924 24.079 16.0463 23.8656C16.1091 23.6165 16.1361 23.3497 16.1361 23.0918V22.7183C15.8666 22.656 15.5881 22.6027 15.3096 22.5671C15.0311 22.5315 14.7436 22.5137 14.4651 22.5137C13.8631 22.5137 13.4229 22.6293 13.1264 22.8695C12.83 23.1096 12.6862 23.4476 12.6862 23.8922C12.6862 24.3102 12.794 24.6215 13.0186 24.835C13.2432 25.0484 13.5487 25.164 13.962 25.164ZM21.1761 26.1246C21.0594 26.1335 20.9336 26.1068 20.8348 26.0356C20.7449 25.9378 20.673 25.8222 20.6461 25.6888L18.5348 18.8139C18.4899 18.6983 18.463 18.5827 18.454 18.4582C18.445 18.3515 18.5169 18.2536 18.6247 18.2359H19.559C19.7297 18.2359 19.8465 18.2625 19.9094 18.3248C19.9723 18.387 20.0352 18.5027 20.0891 18.6716L21.5894 24.5593L22.9909 18.6716C23.0358 18.4938 23.0897 18.3782 23.1616 18.3248C23.2694 18.2625 23.3952 18.227 23.521 18.2359H24.2397C24.4104 18.2359 24.5272 18.2625 24.5991 18.3248C24.6889 18.4226 24.7518 18.5382 24.7698 18.6716L26.1892 24.6304L27.7435 18.6716C27.7704 18.5382 27.8333 18.4226 27.9232 18.3248C28.031 18.2625 28.1478 18.227 28.2735 18.2359H29.1091C29.2169 18.2181 29.3157 18.2981 29.3337 18.4048V18.4582C29.3337 18.5027 29.3247 18.556 29.3157 18.6005C29.2977 18.6805 29.2798 18.7517 29.2528 18.8228L27.0876 25.6977C27.0337 25.8755 26.9709 25.9912 26.899 26.0445C26.8002 26.1068 26.6744 26.1423 26.5576 26.1335H25.785C25.6143 26.1335 25.4975 26.1068 25.4256 26.0445C25.3358 25.9467 25.2729 25.8222 25.2549 25.6888L23.8624 19.9523L22.4788 25.6799C22.4609 25.8133 22.398 25.9378 22.3081 26.0356C22.2003 26.1068 22.0745 26.1335 21.9488 26.1246H21.1761ZM32.7206 26.3647C32.2535 26.3647 31.7863 26.3113 31.3371 26.2046C30.8879 26.0979 30.5375 25.9823 30.3039 25.8489C30.1871 25.7955 30.0883 25.7066 30.0254 25.5998C29.9895 25.5198 29.9715 25.4397 29.9715 25.3508V24.8972C29.9715 24.7105 30.0434 24.6215 30.1782 24.6215C30.2321 24.6215 30.286 24.6304 30.3399 24.6482C30.3938 24.666 30.4746 24.7016 30.5645 24.7371C30.8789 24.8794 31.2113 24.9773 31.5527 25.0484C31.9031 25.1196 32.2625 25.1551 32.6218 25.1551C33.1878 25.1551 33.628 25.0573 33.9335 24.8617C34.23 24.6838 34.4096 24.3636 34.4007 24.0168C34.4096 23.7855 34.3198 23.5632 34.1581 23.3942C33.9964 23.2252 33.6909 23.074 33.2507 22.9317L31.948 22.5315C31.2922 22.327 30.807 22.0246 30.5106 21.6244C30.2231 21.2508 30.0614 20.8061 30.0614 20.3348C30.0524 19.9879 30.1332 19.65 30.3039 19.3476C30.4656 19.063 30.6813 18.8139 30.9508 18.6183C31.2293 18.4048 31.5437 18.2536 31.8851 18.1558C32.2535 18.0491 32.6308 17.9957 33.0171 18.0046C33.2148 18.0046 33.4214 18.0135 33.619 18.0402C33.8257 18.0669 34.0143 18.1024 34.203 18.138C34.3917 18.1736 34.5534 18.227 34.7151 18.2803C34.8499 18.3248 34.9756 18.3782 35.0924 18.4404C35.2002 18.4938 35.2901 18.5649 35.3619 18.6628C35.4248 18.7517 35.4518 18.8495 35.4428 18.9562V19.3742C35.4428 19.561 35.3709 19.6588 35.2362 19.6588C35.1194 19.6411 35.0026 19.6055 34.8948 19.5521C34.3557 19.312 33.7628 19.1964 33.1698 19.2053C32.6578 19.2053 32.2535 19.2853 31.975 19.4543C31.6965 19.6233 31.5527 19.8812 31.5527 20.2458C31.5437 20.486 31.6426 20.7172 31.8222 20.8773C32.0019 21.0463 32.3343 21.2152 32.8105 21.3664L34.0862 21.7666C34.7331 21.9712 35.2002 22.2558 35.4787 22.6204C35.7572 22.9762 35.901 23.4209 35.892 23.8656C35.901 24.2213 35.8201 24.5771 35.6584 24.8972C35.4967 25.1996 35.2721 25.4664 35.0026 25.6799C34.7061 25.9111 34.3647 26.0801 34.0054 26.1779C33.5921 26.3024 33.1609 26.3647 32.7206 26.3647Z" fill="currentColor"></path>
<path d="M34.4186 30.687C31.4628 32.8481 27.1685 33.9954 23.476 33.9954C18.3012 33.9954 13.6385 32.1011 10.1167 28.9527C9.83823 28.7037 10.0898 28.3657 10.4222 28.5614C14.2314 30.7492 18.9301 32.0744 23.7905 32.0744C27.2942 32.0566 30.7621 31.354 33.9873 30.011C34.4815 29.7887 34.9037 30.3312 34.4186 30.687Z" fill="currentColor"></path>
<path d="M35.6494 29.2996C35.2721 28.8193 33.1518 29.0684 32.1905 29.184C31.9031 29.2196 31.8581 28.9705 32.1187 28.7838C33.8077 27.6098 36.5837 27.9478 36.9072 28.3391C37.2306 28.7304 36.8173 31.4875 35.2361 32.8037C34.9936 33.0083 34.76 32.9015 34.8678 32.6347C35.2272 31.7543 36.0267 29.771 35.6494 29.2996Z" fill="currentColor"></path>
</svg>