<svg width="32" height="32" viewBox="0 0 32 32" fill="none" xmlns="http://www.w3.org/2000/svg">
<rect width="31.6601" height="31.6601" fill="white"/>
<path d="M19.5306 24.6751L19.5169 19.3639C19.5156 18.8441 19.8491 18.3825 20.3431 18.2205L25.3901 16.5662C26.1265 16.3248 26.1238 15.2821 25.3862 15.0445L20.3307 13.4164C19.8359 13.257 19.4999 12.7971 19.4986 12.2772L19.4848 6.96605C19.4828 6.19108 18.4903 5.87142 18.0364 6.49957L14.9257 10.8045C14.6212 11.2259 14.08 11.4032 13.5852 11.2439L8.5297 9.61569C7.79203 9.37812 7.18131 10.2233 7.63845 10.8491L10.7714 15.1378C11.0781 15.5576 11.0795 16.1271 10.7751 16.5485L7.66433 20.8534C7.21043 21.4816 7.82551 22.3236 8.56193 22.0822L13.6089 20.4279C14.1029 20.266 14.645 20.4405 14.9517 20.8603L18.0846 25.1491C18.5418 25.7749 19.5326 25.4501 19.5306 24.6751Z" fill="#020617" stroke="black" stroke-width="0.4"/>
</svg>
