<svg width="120" height="32" viewBox="0 0 120 32" fill="none" xmlns="http://www.w3.org/2000/svg">
<path d="M17.9212 25.2671C18.4926 26.0493 19.7312 25.6433 19.7287 24.6746L19.7149 19.3634C19.7138 18.9302 19.9918 18.5455 20.4035 18.4106L25.4505 16.7563C26.371 16.4545 26.3676 15.1511 25.4455 14.8542L20.3901 13.226C19.9777 13.0932 19.6977 12.7099 19.6966 12.2767L19.6829 6.96554C19.6804 5.99682 18.4397 5.59725 17.8724 6.38243L14.7616 10.6873C14.5079 11.0385 14.0569 11.1863 13.6445 11.0535L8.58905 9.42532C7.66697 9.12835 6.90358 10.1848 7.475 10.9671L10.608 15.2558C10.8635 15.6056 10.8647 16.0802 10.611 16.4314L7.50027 20.7363C6.93289 21.5215 7.70174 22.574 8.62228 22.2722L13.6693 20.6179C14.0809 20.483 14.5327 20.6285 14.7882 20.9783L17.9212 25.2671Z" fill="#0F172A"/>
<path d="M41.7482 16.1345C41.7828 16.2038 41.8435 16.2905 41.9302 16.3945C42.2075 16.7412 42.4675 17.0878 42.7102 17.4345C42.9702 17.7638 43.1868 18.1192 43.3602 18.5005C43.5508 18.8645 43.6808 19.2718 43.7502 19.7225C43.8195 20.1732 43.8022 20.6758 43.6982 21.2305C43.5595 22.0452 43.2908 22.7125 42.8922 23.2325C42.5108 23.7352 42.0428 24.1252 41.4882 24.4025C40.9335 24.6798 40.3182 24.8705 39.6422 24.9745C38.9662 25.0612 38.2642 25.1045 37.5362 25.1045C36.8255 25.1218 36.1062 25.1045 35.3782 25.0525C34.6675 25.0005 34.0002 24.9658 33.3762 24.9485C33.2722 24.9485 33.1682 24.9485 33.0642 24.9485C32.9775 24.9485 32.8908 24.9312 32.8042 24.8965C32.7002 21.8978 32.6742 18.9252 32.7262 15.9785C32.7782 13.0145 32.7782 10.0245 32.7262 7.00849L32.7522 6.98249C33.4455 6.79182 34.1822 6.64449 34.9622 6.54049C35.7422 6.43649 36.5135 6.40182 37.2762 6.43649C38.0388 6.47115 38.7668 6.58382 39.4602 6.77449C40.1708 6.96515 40.7948 7.27715 41.3322 7.71049C41.8695 8.12649 42.2942 8.67249 42.6062 9.34849C42.9182 10.0072 43.0742 10.8218 43.0742 11.7925C43.0742 12.5205 42.9442 13.2312 42.6842 13.9245C42.4415 14.6178 42.1468 15.2592 41.8002 15.8485C41.7308 15.9698 41.7135 16.0652 41.7482 16.1345ZM38.8622 21.1785C39.1048 21.0745 39.3128 20.9185 39.4862 20.7105C39.6768 20.4505 39.7635 20.1385 39.7462 19.7745C39.7462 19.4105 39.6855 19.0812 39.5642 18.7865C39.4602 18.5785 39.3042 18.3965 39.0962 18.2405C38.8882 18.0672 38.6715 17.9545 38.4462 17.9025C38.1168 17.8158 37.7788 17.7725 37.4322 17.7725C37.0855 17.7552 36.7475 17.7292 36.4182 17.6945C36.3488 17.9545 36.2882 18.2492 36.2362 18.5785C36.1842 18.9078 36.1495 19.2458 36.1322 19.5925C36.1322 19.9218 36.1582 20.2425 36.2102 20.5545C36.2622 20.8665 36.3575 21.1265 36.4962 21.3345L36.5482 21.3605C36.7908 21.3605 37.0422 21.3692 37.3022 21.3865C37.5795 21.3865 37.8482 21.3778 38.1082 21.3605C38.3855 21.3258 38.6368 21.2652 38.8622 21.1785ZM38.8882 13.8985C39.1308 13.7598 39.3215 13.5605 39.4602 13.3005C39.5815 13.0925 39.6855 12.8498 39.7722 12.5725C39.8588 12.2952 39.8328 12.0178 39.6942 11.7405C39.5555 11.4632 39.3735 11.2552 39.1482 11.1165C38.9402 10.9605 38.6975 10.8478 38.4202 10.7785C38.0735 10.7092 37.7008 10.6745 37.3022 10.6745C36.9208 10.6572 36.6002 10.7178 36.3402 10.8565C36.3748 11.2552 36.3575 11.7405 36.2882 12.3125C36.2362 12.8845 36.2882 13.4738 36.4442 14.0805C36.7042 14.1152 36.9815 14.1412 37.2762 14.1585C37.5708 14.1758 37.8568 14.1672 38.1342 14.1325C38.4115 14.0978 38.6628 14.0198 38.8882 13.8985ZM55.4388 7.37249C55.7681 7.40715 56.0368 7.48515 56.2448 7.60649C56.3488 9.82515 56.3834 12.0698 56.3488 14.3405C56.3141 16.5938 56.1754 18.8385 55.9328 21.0745C55.7941 22.2185 55.3608 23.1892 54.6328 23.9865C53.9048 24.7838 52.9168 25.2432 51.6688 25.3645C50.9408 25.4338 50.1868 25.3992 49.4068 25.2605C48.6268 25.1392 47.9161 24.9138 47.2748 24.5845C46.6508 24.2378 46.1221 23.7872 45.6888 23.2325C45.2728 22.6605 45.0474 21.9758 45.0128 21.1785C45.0128 18.8905 45.0388 16.5852 45.0908 14.2625C45.1428 11.9398 45.1514 9.63449 45.1168 7.34649L45.0908 7.32049H45.1168C45.3768 7.32049 45.6628 7.31182 45.9748 7.29449C46.3041 7.27715 46.6334 7.26849 46.9628 7.26849C47.2921 7.26849 47.6128 7.28582 47.9248 7.32049C48.2368 7.33782 48.5228 7.38115 48.7828 7.45049V7.47649C48.5921 11.6712 48.6701 15.9265 49.0168 20.2425C49.1381 20.6585 49.3548 20.9618 49.6668 21.1525C49.9961 21.3432 50.3341 21.4298 50.6808 21.4125C51.0274 21.3952 51.3481 21.2738 51.6428 21.0485C51.9374 20.8232 52.1281 20.5112 52.2148 20.1125C52.3014 18.0325 52.3448 15.9178 52.3448 13.7685C52.3621 11.6192 52.3968 9.53915 52.4488 7.52849C52.6741 7.51115 52.9601 7.48515 53.3068 7.45049C53.6708 7.39849 54.0348 7.36382 54.3988 7.34649C54.7628 7.32915 55.1094 7.33782 55.4388 7.37249ZM68.9557 9.03649C68.9037 9.74715 68.8864 10.4318 68.9037 11.0905V11.1165C67.8984 12.8152 66.8064 14.4792 65.6277 16.1085C64.4491 17.7378 63.3137 19.3932 62.2217 21.0745L62.1957 21.1005C62.8891 21.0138 63.4784 20.9532 63.9637 20.9185C64.4664 20.8838 64.9431 20.8665 65.3937 20.8665C65.8617 20.8492 66.3471 20.8405 66.8497 20.8405C67.3697 20.8232 68.0024 20.7972 68.7477 20.7625V20.8405C68.8344 21.4992 68.8604 22.2012 68.8257 22.9465C68.7911 23.6918 68.7477 24.3765 68.6957 25.0005V25.0525C67.0491 24.9658 65.3244 24.9138 63.5217 24.8965C61.7364 24.8792 59.9164 24.9225 58.0617 25.0265C57.9577 24.7145 57.8971 24.3938 57.8797 24.0645C57.8624 23.7178 57.8537 23.3712 57.8537 23.0245C57.8537 22.6605 57.8537 22.3052 57.8537 21.9585C57.8711 21.5945 57.8624 21.2305 57.8277 20.8665C58.2091 20.0172 58.6597 19.1678 59.1797 18.3185C59.6997 17.4692 60.2457 16.6285 60.8177 15.7965C61.4071 14.9645 61.9877 14.1498 62.5597 13.3525C63.1491 12.5552 63.6951 11.8012 64.1977 11.0905C63.7991 11.0385 63.3051 10.9952 62.7157 10.9605C62.1437 10.9258 61.5544 10.8998 60.9477 10.8825C60.3411 10.8478 59.7604 10.8218 59.2057 10.8045C58.6684 10.7698 58.2437 10.7525 57.9317 10.7525C57.8277 10.5792 57.7671 10.3452 57.7497 10.0505C57.7324 9.75582 57.7237 9.44382 57.7237 9.11449C57.7237 8.78515 57.7151 8.45582 57.6977 8.12649C57.6977 7.77982 57.6544 7.46782 57.5677 7.19049V7.16449C57.5677 7.12982 57.5504 7.09515 57.5157 7.06049C59.3011 6.88715 61.1471 6.82649 63.0537 6.87849C64.9604 6.91315 66.9104 6.93915 68.9037 6.95649C68.9904 7.63249 69.0077 8.32582 68.9557 9.03649ZM79.7882 8.02249C80.2909 8.47315 80.6462 9.00182 80.8542 9.60849C80.9755 9.86849 81.0622 10.1372 81.1142 10.4145C81.1835 10.6745 81.2355 10.9432 81.2702 11.2205C81.3049 11.6538 81.3222 12.0872 81.3222 12.5205C81.3395 12.9365 81.3395 13.3612 81.3222 13.7945C81.2702 14.7132 81.2529 15.6058 81.2702 16.4725C81.2875 17.3392 81.2615 18.2232 81.1922 19.1245L81.1142 19.9825C81.0795 20.5892 80.9842 21.2045 80.8282 21.8285C80.6722 22.4352 80.4382 22.9898 80.1262 23.4925C79.8315 23.9085 79.4415 24.2465 78.9562 24.5065C78.4882 24.7492 77.9855 24.9398 77.4482 25.0785C76.9629 25.2172 76.4689 25.3038 75.9662 25.3385C75.4809 25.3732 74.9869 25.3732 74.4842 25.3385C74.1202 25.3038 73.7649 25.2518 73.4182 25.1825C73.0889 25.1305 72.7682 25.0352 72.4562 24.8965C72.1615 24.7578 71.8929 24.5845 71.6502 24.3765C71.4075 24.1512 71.2082 23.8652 71.0522 23.5185C70.8095 23.0852 70.6449 22.6258 70.5582 22.1405C70.4889 21.6378 70.4455 21.1352 70.4282 20.6325C70.3762 19.2805 70.3155 17.9285 70.2462 16.5765C70.1942 15.2072 70.2115 13.8378 70.2982 12.4685C70.3155 11.6885 70.4109 10.9085 70.5842 10.1285C70.7749 9.33115 71.1389 8.62915 71.6762 8.02249C71.8495 7.84915 72.0489 7.69315 72.2742 7.55449C72.8462 7.27715 73.4615 7.07782 74.1202 6.95649C74.7962 6.81782 75.4635 6.76582 76.1222 6.80049C76.7982 6.83515 77.4482 6.95649 78.0722 7.16449C78.7135 7.35515 79.2855 7.64115 79.7882 8.02249ZM78.0722 17.2005V15.9525L78.0202 14.1845C78.0202 14.1672 78.0029 13.9938 77.9682 13.6645C77.9509 13.3178 77.9335 12.9972 77.9162 12.7025C77.8815 12.2172 77.7429 11.7752 77.5002 11.3765C77.2749 10.9778 76.9629 10.6832 76.5642 10.4925C76.2175 10.3538 75.8622 10.3278 75.4982 10.4145C75.1342 10.5012 74.8135 10.6485 74.5362 10.8565C73.9295 11.3245 73.5222 11.9225 73.3142 12.6505C73.1755 13.3092 73.0889 14.0025 73.0542 14.7305C73.0369 15.4585 73.0455 16.1865 73.0802 16.9145C73.1669 17.5212 73.2275 18.1452 73.2622 18.7865C73.2969 19.4105 73.4009 20.0085 73.5742 20.5805C73.7475 20.9272 73.9989 21.1958 74.3282 21.3865C74.6575 21.5772 75.0129 21.6898 75.3942 21.7245C75.7755 21.7418 76.1569 21.6898 76.5382 21.5685C76.9195 21.4298 77.2402 21.2132 77.5002 20.9185C77.6562 20.7105 77.7689 20.5458 77.8382 20.4245C77.9075 20.2858 77.9509 20.1385 77.9682 19.9825C77.9855 19.8265 77.9855 19.6445 77.9682 19.4365C77.9682 19.2112 77.9855 18.9165 78.0202 18.5525C78.0375 18.2058 78.0462 17.9025 78.0462 17.6425C78.0635 17.3825 78.0722 17.2352 78.0722 17.2005ZM92.3565 8.02249C92.8592 8.47315 93.2145 9.00182 93.4225 9.60849C93.5439 9.86849 93.6305 10.1372 93.6825 10.4145C93.7519 10.6745 93.8039 10.9432 93.8385 11.2205C93.8732 11.6538 93.8905 12.0872 93.8905 12.5205C93.9079 12.9365 93.9079 13.3612 93.8905 13.7945C93.8385 14.7132 93.8212 15.6058 93.8385 16.4725C93.8559 17.3392 93.8299 18.2232 93.7605 19.1245L93.6825 19.9825C93.6479 20.5892 93.5525 21.2045 93.3965 21.8285C93.2405 22.4352 93.0065 22.9898 92.6945 23.4925C92.3999 23.9085 92.0099 24.2465 91.5245 24.5065C91.0565 24.7492 90.5539 24.9398 90.0165 25.0785C89.5312 25.2172 89.0372 25.3038 88.5345 25.3385C88.0492 25.3732 87.5552 25.3732 87.0525 25.3385C86.6885 25.3038 86.3332 25.2518 85.9865 25.1825C85.6572 25.1305 85.3365 25.0352 85.0245 24.8965C84.7299 24.7578 84.4612 24.5845 84.2185 24.3765C83.9759 24.1512 83.7765 23.8652 83.6205 23.5185C83.3779 23.0852 83.2132 22.6258 83.1265 22.1405C83.0572 21.6378 83.0139 21.1352 82.9965 20.6325C82.9445 19.2805 82.8839 17.9285 82.8145 16.5765C82.7625 15.2072 82.7799 13.8378 82.8665 12.4685C82.8839 11.6885 82.9792 10.9085 83.1525 10.1285C83.3432 9.33115 83.7072 8.62915 84.2445 8.02249C84.4179 7.84915 84.6172 7.69315 84.8425 7.55449C85.4145 7.27715 86.0299 7.07782 86.6885 6.95649C87.3645 6.81782 88.0319 6.76582 88.6905 6.80049C89.3665 6.83515 90.0165 6.95649 90.6405 7.16449C91.2819 7.35515 91.8539 7.64115 92.3565 8.02249ZM90.6405 17.2005V15.9525L90.5885 14.1845C90.5885 14.1672 90.5712 13.9938 90.5365 13.6645C90.5192 13.3178 90.5019 12.9972 90.4845 12.7025C90.4499 12.2172 90.3112 11.7752 90.0685 11.3765C89.8432 10.9778 89.5312 10.6832 89.1325 10.4925C88.7859 10.3538 88.4305 10.3278 88.0665 10.4145C87.7025 10.5012 87.3819 10.6485 87.1045 10.8565C86.4979 11.3245 86.0905 11.9225 85.8825 12.6505C85.7439 13.3092 85.6572 14.0025 85.6225 14.7305C85.6052 15.4585 85.6139 16.1865 85.6485 16.9145C85.7352 17.5212 85.7959 18.1452 85.8305 18.7865C85.8652 19.4105 85.9692 20.0085 86.1425 20.5805C86.3159 20.9272 86.5672 21.1958 86.8965 21.3865C87.2259 21.5772 87.5812 21.6898 87.9625 21.7245C88.3439 21.7418 88.7252 21.6898 89.1065 21.5685C89.4879 21.4298 89.8085 21.2132 90.0685 20.9185C90.2245 20.7105 90.3372 20.5458 90.4065 20.4245C90.4759 20.2858 90.5192 20.1385 90.5365 19.9825C90.5539 19.8265 90.5539 19.6445 90.5365 19.4365C90.5365 19.2112 90.5539 18.9165 90.5885 18.5525C90.6059 18.2058 90.6145 17.9025 90.6145 17.6425C90.6319 17.3825 90.6405 17.2352 90.6405 17.2005ZM103.313 13.4825C102.897 14.2105 102.533 14.9385 102.221 15.6665L106.667 24.8965C106.112 25.0178 105.506 25.0612 104.847 25.0265C104.206 24.9918 103.608 24.9658 103.053 24.9485C102.689 24.5325 102.351 24.0385 102.039 23.4665C101.727 22.8772 101.424 22.2705 101.129 21.6465C100.852 21.0225 100.574 20.4072 100.297 19.8005C100.02 19.1938 99.7422 18.6478 99.4649 18.1625C99.4476 18.6652 99.4389 19.2112 99.4389 19.8005C99.4562 20.3725 99.4736 20.9532 99.4909 21.5425C99.5082 22.1318 99.5169 22.7125 99.5169 23.2845C99.5342 23.8565 99.5429 24.3852 99.5429 24.8705C99.3002 24.9398 99.0142 24.9832 98.6849 25.0005C98.3556 25.0352 98.0089 25.0525 97.6449 25.0525C97.2809 25.0525 96.9256 25.0352 96.5789 25.0005C96.2496 24.9658 95.9722 24.9225 95.7469 24.8705C95.6082 21.8892 95.5822 18.8992 95.6689 15.9005C95.7729 12.8845 95.8162 9.85982 95.7989 6.82649C96.3709 6.80915 96.9516 6.81782 97.5409 6.85249C98.1476 6.86982 98.7282 6.87849 99.2829 6.87849C99.3176 7.86649 99.3262 8.90649 99.3089 9.99849C99.2916 11.0905 99.3002 12.1305 99.3349 13.1185C99.3349 13.1358 99.3436 13.1272 99.3609 13.0925C99.3956 13.0405 99.4302 12.9972 99.4649 12.9625C99.8289 12.4945 100.158 12.0092 100.453 11.5065C100.748 11.0038 101.025 10.4925 101.285 9.97249C101.562 9.45249 101.84 8.93249 102.117 8.41249C102.412 7.89249 102.741 7.37249 103.105 6.85249C103.66 6.88715 104.249 6.88715 104.873 6.85249C105.497 6.81782 106.086 6.84382 106.641 6.93049C106.433 7.65849 106.138 8.38649 105.757 9.11449C105.393 9.84249 104.994 10.5705 104.561 11.2985C104.145 12.0265 103.729 12.7545 103.313 13.4825ZM115.689 14.6785C115.81 15.1812 115.905 15.5798 115.975 15.8745L117.925 24.9745V25.0005C117.405 25.1045 116.833 25.1392 116.209 25.1045C115.585 25.0872 114.995 25.0178 114.441 24.8965H114.415C114.311 24.6192 114.207 24.2898 114.103 23.9085C114.016 23.5272 113.921 23.1372 113.817 22.7385C113.73 22.3398 113.635 21.9585 113.531 21.5945C113.427 21.2305 113.314 20.9185 113.193 20.6585C112.967 20.6238 112.794 20.6065 112.673 20.6065C112.551 20.6065 112.439 20.6065 112.335 20.6065C112.248 20.6065 112.144 20.6152 112.023 20.6325C111.919 20.6325 111.771 20.6325 111.581 20.6325C111.459 20.9098 111.355 21.2392 111.269 21.6205C111.199 21.9845 111.121 22.3745 111.035 22.7905C110.965 23.1892 110.887 23.5792 110.801 23.9605C110.714 24.3418 110.593 24.6798 110.437 24.9745C110.419 24.9745 110.402 24.9832 110.384 25.0005C110.384 25.0005 110.376 25.0005 110.359 25.0005C110.22 25.0352 109.873 25.0352 109.319 25.0005C108.764 24.9658 107.897 24.9572 106.719 24.9745C106.701 24.9745 106.684 24.9658 106.667 24.9485C106.701 24.8272 106.762 24.4892 106.849 23.9345C106.935 23.3798 107.057 22.6605 107.213 21.7765C107.369 20.8925 107.551 19.8785 107.759 18.7345C107.984 17.5732 108.244 16.3425 108.539 15.0425C108.833 13.7425 109.154 12.3905 109.501 10.9865C109.847 9.58249 110.229 8.18715 110.645 6.80049C110.766 6.78315 110.896 6.77449 111.035 6.77449C111.173 6.77449 111.355 6.77449 111.581 6.77449C111.806 6.77449 112.092 6.77449 112.439 6.77449C112.803 6.75715 113.271 6.72249 113.843 6.67049C113.895 6.89582 113.973 7.24249 114.077 7.71049C114.198 8.16115 114.319 8.68115 114.441 9.27049C114.579 9.84249 114.718 10.4578 114.857 11.1165C115.013 11.7752 115.16 12.4078 115.299 13.0145C115.437 13.6212 115.567 14.1758 115.689 14.6785ZM112.335 17.5905C112.664 17.5732 112.993 17.5645 113.323 17.5645C113.149 16.0738 112.993 14.9125 112.855 14.0805C112.733 13.2485 112.621 12.6852 112.517 12.3905C112.43 12.0958 112.335 12.0352 112.231 12.2085C112.144 12.3645 112.057 12.6938 111.971 13.1965C111.901 13.6992 111.815 14.3318 111.711 15.0945C111.624 15.8572 111.52 16.6805 111.399 17.5645C111.693 17.5818 112.005 17.5905 112.335 17.5905Z" fill="#0F172A"/>
</svg>
