<svg width="300" height="62" viewBox="0 0 300 62" fill="none" xmlns="http://www.w3.org/2000/svg">
<g clip-path="url(#clip0_1875_1169)">
<path d="M280.61 51.1294C278.251 57.3417 272.297 61.4492 265.652 61.4492H9.08206C3.92922 61.4492 0.120295 56.649 1.29141 51.631L12.4449 3.84059H298.568L280.61 51.1294Z" fill="#222222"/>
<path d="M12.4414 3.84082H298.564L299.999 0.000244856H13.577L12.4414 3.84082Z" fill="url(#paint0_linear_1875_1169)"/>
<path d="M51.5217 44.0435L54.1085 36.0821H62.4795L55.7072 31.1618L58.294 23.2005L51.5217 28.1208L44.7494 23.2005L47.3362 31.1618L40.5639 36.0821H48.9349L51.5217 44.0435Z" fill="white"/>
<path d="M71.6 19.48H79.6V47H71.6V19.48ZM81.28 40.88H82.92C83.6667 40.88 84.2267 40.8667 84.6 40.84C85 40.7867 85.2933 40.68 85.48 40.52C85.6667 40.36 85.7867 40.1333 85.84 39.84C85.92 39.5467 85.96 39.12 85.96 38.56C85.96 37.9733 85.92 37.5333 85.84 37.24C85.7867 36.9467 85.6667 36.72 85.48 36.56C85.16 36.2933 84.3067 36.16 82.92 36.16H81.28V30.04H82.68C83.4267 30.04 83.9867 30.0267 84.36 30C84.76 29.9467 85.0533 29.84 85.24 29.68C85.4267 29.52 85.5467 29.3067 85.6 29.04C85.68 28.7467 85.72 28.3467 85.72 27.84C85.72 27.3067 85.68 26.9067 85.6 26.64C85.5467 26.3467 85.4267 26.12 85.24 25.96C85.0533 25.8 84.76 25.7067 84.36 25.68C83.9867 25.6267 83.4267 25.6 82.68 25.6H81.28V19.48H85.84C91.2 19.48 93.88 21.7867 93.88 26.4C93.88 28.3467 93.4933 29.8133 92.72 30.8C91.9733 31.7867 90.7733 32.48 89.12 32.88V33.04C90.8533 33.44 92.0933 34.0667 92.84 34.92C93.6933 35.9333 94.12 37.5067 94.12 39.64C94.12 42.0933 93.4667 43.9333 92.16 45.16C90.8533 46.3867 88.76 47 85.88 47H81.28V40.88ZM108.397 47.32C105.597 47.32 103.437 47.0933 101.917 46.64C100.397 46.1867 99.2769 45.4533 98.5569 44.44C97.8902 43.5067 97.4769 42.32 97.3169 40.88C97.1569 39.44 97.0769 37.2933 97.0769 34.44V19.48H105.077V36.04C105.077 37.0267 105.104 37.9733 105.157 38.88C105.21 39.6 105.33 40.12 105.517 40.44C105.704 40.76 106.024 40.96 106.477 41.04C106.877 41.1467 107.517 41.2 108.397 41.2H109.317C109.53 41.2 109.77 41.1733 110.037 41.12V47.28C109.85 47.3067 109.584 47.32 109.237 47.32H108.397ZM111.717 19.48H119.717V34.44C119.717 37.0533 119.664 39.0267 119.557 40.36C119.45 41.6933 119.157 42.8133 118.677 43.72C118.144 44.76 117.33 45.56 116.237 46.12C115.144 46.68 113.637 47.04 111.717 47.2V19.48ZM123.054 19.48H144.134V25.16L143.814 25.6H123.054V19.48ZM122.614 41.12L132.934 27.2H142.614L127.894 47H122.614V41.12ZM134.534 40.88H144.134V47H129.974L134.534 40.88ZM162.421 33.24C162.421 30.92 162.407 29.4 162.381 28.68C162.327 27.5867 162.181 26.8 161.941 26.32C161.701 25.8133 161.314 25.5067 160.781 25.4C160.247 25.32 159.487 25.28 158.501 25.28C157.354 25.28 156.607 25.3333 156.261 25.44V19.2C156.501 19.1733 156.861 19.16 157.341 19.16H158.501C161.487 19.16 163.794 19.4 165.421 19.88C167.074 20.3333 168.274 21.0933 169.021 22.16C169.714 23.1467 170.141 24.44 170.301 26.04C170.487 27.64 170.581 30.04 170.581 33.24C170.581 36.04 170.514 38.2 170.381 39.72C170.274 41.2133 169.981 42.4533 169.501 43.44C168.967 44.56 168.141 45.4133 167.021 46C165.927 46.5867 164.394 46.9733 162.421 47.16V33.24ZM158.501 47.32C154.607 47.32 151.807 46.8933 150.101 46.04C149.221 45.6133 148.527 45.04 148.021 44.32C147.514 43.6 147.141 42.7067 146.901 41.64C146.687 40.7067 146.554 39.64 146.501 38.44C146.447 37.2133 146.421 35.48 146.421 33.24C146.421 30.44 146.474 28.2933 146.581 26.8C146.714 25.3067 147.021 24.0533 147.501 23.04C148.034 21.9467 148.847 21.1067 149.941 20.52C151.034 19.9333 152.581 19.5333 154.581 19.32V33.24C154.581 34.8133 154.607 36.32 154.661 37.76C154.714 38.8533 154.847 39.6533 155.061 40.16C155.301 40.6667 155.687 40.96 156.221 41.04C156.674 41.1467 157.434 41.2 158.501 41.2C159.594 41.2 160.341 41.16 160.741 41.08V47.28C160.501 47.3067 160.141 47.32 159.661 47.32H158.501ZM189.15 33.24C189.15 30.92 189.137 29.4 189.11 28.68C189.057 27.5867 188.91 26.8 188.67 26.32C188.43 25.8133 188.044 25.5067 187.51 25.4C186.977 25.32 186.217 25.28 185.23 25.28C184.084 25.28 183.337 25.3333 182.99 25.44V19.2C183.23 19.1733 183.59 19.16 184.07 19.16H185.23C188.217 19.16 190.524 19.4 192.15 19.88C193.804 20.3333 195.004 21.0933 195.75 22.16C196.444 23.1467 196.87 24.44 197.03 26.04C197.217 27.64 197.31 30.04 197.31 33.24C197.31 36.04 197.244 38.2 197.11 39.72C197.004 41.2133 196.71 42.4533 196.23 43.44C195.697 44.56 194.87 45.4133 193.75 46C192.657 46.5867 191.124 46.9733 189.15 47.16V33.24ZM185.23 47.32C181.337 47.32 178.537 46.8933 176.83 46.04C175.95 45.6133 175.257 45.04 174.75 44.32C174.244 43.6 173.87 42.7067 173.63 41.64C173.417 40.7067 173.284 39.64 173.23 38.44C173.177 37.2133 173.15 35.48 173.15 33.24C173.15 30.44 173.204 28.2933 173.31 26.8C173.444 25.3067 173.75 24.0533 174.23 23.04C174.764 21.9467 175.577 21.1067 176.67 20.52C177.764 19.9333 179.31 19.5333 181.31 19.32V33.24C181.31 34.8133 181.337 36.32 181.39 37.76C181.444 38.8533 181.577 39.6533 181.79 40.16C182.03 40.6667 182.417 40.96 182.95 41.04C183.404 41.1467 184.164 41.2 185.23 41.2C186.324 41.2 187.07 41.16 187.47 41.08V47.28C187.23 47.3067 186.87 47.32 186.39 47.32H185.23ZM200.6 19.48H208.6V47H200.6V19.48ZM210.28 37.36V28.76L216.6 19.48H225.32L215.84 32.44L225.44 47H216.48L210.28 37.36ZM234.945 19.48H235.625L238.785 30.44L234.185 47H226.185L234.945 19.48ZM243.945 42.12H237.265L238.945 35.96H242.145L237.425 19.48H244.745L253.505 47H245.345L243.945 42.12Z" fill="white"/>
</g>
<defs>
<linearGradient id="paint0_linear_1875_1169" x1="10.5211" y1="1.92053" x2="300.895" y2="1.92053" gradientUnits="userSpaceOnUse">
<stop stop-color="#FF23AB"/>
<stop offset="0.5" stop-color="#40BEFE"/>
<stop offset="1" stop-color="#00FFD4"/>
</linearGradient>
<clipPath id="clip0_1875_1169">
<rect width="300" height="62" fill="white"/>
</clipPath>
</defs>
</svg>
