<svg width="83" height="16" viewBox="0 0 83 16" fill="none" xmlns="http://www.w3.org/2000/svg">
<g clip-path="url(#clip0_1863_1164)">
<rect width="83" height="16" fill="#222222"/>
<path d="M2.75 14V2.36364H7.79545C8.68182 2.36364 9.42614 2.48295 10.0284 2.72159C10.6345 2.96023 11.0909 3.29735 11.3977 3.73295C11.7083 4.16856 11.8636 4.68182 11.8636 5.27273C11.8636 5.70076 11.7689 6.09091 11.5795 6.44318C11.3939 6.79545 11.1326 7.09091 10.7955 7.32955C10.4583 7.56439 10.0644 7.72727 9.61364 7.81818V7.93182C10.1136 7.95076 10.5682 8.07765 10.9773 8.3125C11.3864 8.54356 11.7121 8.86364 11.9545 9.27273C12.197 9.67803 12.3182 10.1553 12.3182 10.7045C12.3182 11.3409 12.1515 11.9072 11.8182 12.4034C11.4886 12.8996 11.0189 13.2898 10.4091 13.5739C9.79924 13.858 9.07197 14 8.22727 14H2.75ZM5.90909 11.4773H7.38636C7.91667 11.4773 8.31439 11.3788 8.57955 11.1818C8.8447 10.9811 8.97727 10.6856 8.97727 10.2955C8.97727 10.0227 8.91477 9.79167 8.78977 9.60227C8.66477 9.41288 8.48674 9.26894 8.25568 9.17045C8.02841 9.07197 7.75379 9.02273 7.43182 9.02273H5.90909V11.4773ZM5.90909 7.06818H7.20455C7.48106 7.06818 7.72538 7.02462 7.9375 6.9375C8.14962 6.85038 8.31439 6.72538 8.43182 6.5625C8.55303 6.39583 8.61364 6.19318 8.61364 5.95455C8.61364 5.5947 8.48485 5.32008 8.22727 5.13068C7.9697 4.9375 7.64394 4.84091 7.25 4.84091H5.90909V7.06818ZM19.8439 2.36364H23.003V9.81818C23.003 10.7045 22.7908 11.4716 22.3666 12.1193C21.9461 12.7633 21.359 13.2614 20.6052 13.6136C19.8514 13.9621 18.9764 14.1364 17.9802 14.1364C16.9764 14.1364 16.0977 13.9621 15.3439 13.6136C14.5901 13.2614 14.003 12.7633 13.5825 12.1193C13.1658 11.4716 12.9575 10.7045 12.9575 9.81818V2.36364H16.1166V9.54545C16.1166 9.9053 16.1961 10.2273 16.3552 10.5114C16.5143 10.7917 16.734 11.0114 17.0143 11.1705C17.2984 11.3295 17.6204 11.4091 17.9802 11.4091C18.3439 11.4091 18.6658 11.3295 18.9461 11.1705C19.2264 11.0114 19.4461 10.7917 19.6052 10.5114C19.7643 10.2273 19.8439 9.9053 19.8439 9.54545V2.36364ZM24.0698 14V12.25L29.5698 4.90909H24.0926V2.36364H33.5926V4.11364L28.0926 11.4545H33.5698V14H24.0698ZM45.3796 8.18182C45.3796 9.47727 45.1277 10.5701 44.6239 11.4602C44.1201 12.3466 43.4402 13.0189 42.5841 13.4773C41.7281 13.9318 40.7735 14.1591 39.7205 14.1591C38.6599 14.1591 37.7016 13.9299 36.8455 13.4716C35.9932 13.0095 35.3152 12.3352 34.8114 11.4489C34.3114 10.5587 34.0614 9.4697 34.0614 8.18182C34.0614 6.88636 34.3114 5.79545 34.8114 4.90909C35.3152 4.01894 35.9932 3.34659 36.8455 2.89205C37.7016 2.43371 38.6599 2.20455 39.7205 2.20455C40.7735 2.20455 41.7281 2.43371 42.5841 2.89205C43.4402 3.34659 44.1201 4.01894 44.6239 4.90909C45.1277 5.79545 45.3796 6.88636 45.3796 8.18182ZM42.1296 8.18182C42.1296 7.48485 42.0368 6.89773 41.8512 6.42045C41.6694 5.93939 41.3985 5.57576 41.0387 5.32955C40.6826 5.07955 40.2432 4.95455 39.7205 4.95455C39.1978 4.95455 38.7565 5.07955 38.3966 5.32955C38.0406 5.57576 37.7698 5.93939 37.5841 6.42045C37.4023 6.89773 37.3114 7.48485 37.3114 8.18182C37.3114 8.87879 37.4023 9.4678 37.5841 9.94886C37.7698 10.4261 38.0406 10.7898 38.3966 11.0398C38.7565 11.286 39.1978 11.4091 39.7205 11.4091C40.2432 11.4091 40.6826 11.286 41.0387 11.0398C41.3985 10.7898 41.6694 10.4261 41.8512 9.94886C42.0368 9.4678 42.1296 8.87879 42.1296 8.18182ZM57.634 8.18182C57.634 9.47727 57.3821 10.5701 56.8783 11.4602C56.3745 12.3466 55.6946 13.0189 54.8385 13.4773C53.9825 13.9318 53.0279 14.1591 51.9749 14.1591C50.9143 14.1591 49.9559 13.9299 49.0999 13.4716C48.2476 13.0095 47.5696 12.3352 47.0658 11.4489C46.5658 10.5587 46.3158 9.4697 46.3158 8.18182C46.3158 6.88636 46.5658 5.79545 47.0658 4.90909C47.5696 4.01894 48.2476 3.34659 49.0999 2.89205C49.9559 2.43371 50.9143 2.20455 51.9749 2.20455C53.0279 2.20455 53.9825 2.43371 54.8385 2.89205C55.6946 3.34659 56.3745 4.01894 56.8783 4.90909C57.3821 5.79545 57.634 6.88636 57.634 8.18182ZM54.384 8.18182C54.384 7.48485 54.2912 6.89773 54.1056 6.42045C53.9238 5.93939 53.6529 5.57576 53.2931 5.32955C52.937 5.07955 52.4976 4.95455 51.9749 4.95455C51.4522 4.95455 51.0109 5.07955 50.651 5.32955C50.295 5.57576 50.0241 5.93939 49.8385 6.42045C49.6567 6.89773 49.5658 7.48485 49.5658 8.18182C49.5658 8.87879 49.6567 9.4678 49.8385 9.94886C50.0241 10.4261 50.295 10.7898 50.651 11.0398C51.0109 11.286 51.4522 11.4091 51.9749 11.4091C52.4976 11.4091 52.937 11.286 53.2931 11.0398C53.6529 10.7898 53.9238 10.4261 54.1056 9.94886C54.2912 9.4678 54.384 8.87879 54.384 8.18182ZM58.6156 14V2.36364H61.7747V7.06818H61.9338L65.4338 2.36364H69.1156L65.1838 7.54545L69.2065 14H65.4338L62.8202 9.63636L61.7747 11V14H58.6156ZM72.5959 14H69.1868L73.0277 2.36364H77.3459L81.1868 14H77.7777L75.2322 5.56818H75.1413L72.5959 14ZM71.9595 9.40909H78.3686V11.7727H71.9595V9.40909Z" fill="white"/>
</g>
<defs>
<clipPath id="clip0_1863_1164">
<rect width="83" height="16" fill="white"/>
</clipPath>
</defs>
</svg>
