<svg width="78" height="16" viewBox="0 0 78 16" fill="none" xmlns="http://www.w3.org/2000/svg">
<g clip-path="url(#clip0_1866_1222)">
<path d="M72.2843 2.57996C71.6945 1.02687 70.2061 0 68.5448 0H4.04103C1.46461 0 -0.439854 2.40011 0.145705 4.9091L2.50076 15H77.0007L72.2843 2.57996Z" fill="#222222"/>
<path d="M2.5 15H77L77.3737 16H2.79569L2.5 15Z" fill="url(#paint0_linear_1866_1222)"/>
<path d="M12.845 3.056H15.445V12H12.845V3.056ZM15.991 10.011H16.524C16.7667 10.011 16.9487 10.0067 17.07 9.998C17.2 9.98067 17.2953 9.946 17.356 9.894C17.4167 9.842 17.4557 9.76833 17.473 9.673C17.499 9.57767 17.512 9.439 17.512 9.257C17.512 9.06633 17.499 8.92333 17.473 8.828C17.4557 8.73267 17.4167 8.659 17.356 8.607C17.252 8.52033 16.9747 8.477 16.524 8.477H15.991V6.488H16.446C16.6887 6.488 16.8707 6.48367 16.992 6.475C17.122 6.45767 17.2173 6.423 17.278 6.371C17.3387 6.319 17.3777 6.24967 17.395 6.163C17.421 6.06767 17.434 5.93767 17.434 5.773C17.434 5.59967 17.421 5.46967 17.395 5.383C17.3777 5.28767 17.3387 5.214 17.278 5.162C17.2173 5.11 17.122 5.07967 16.992 5.071C16.8707 5.05367 16.6887 5.045 16.446 5.045H15.991V3.056H17.473C19.215 3.056 20.086 3.80567 20.086 5.305C20.086 5.93767 19.9603 6.41433 19.709 6.735C19.4663 7.05567 19.0763 7.281 18.539 7.411V7.463C19.1023 7.593 19.5053 7.79667 19.748 8.074C20.0253 8.40333 20.164 8.91467 20.164 9.608C20.164 10.4053 19.9517 11.0033 19.527 11.402C19.1023 11.8007 18.422 12 17.486 12H15.991V10.011ZM24.804 12.104C23.894 12.104 23.192 12.0303 22.698 11.883C22.204 11.7357 21.84 11.4973 21.606 11.168C21.3893 10.8647 21.255 10.479 21.203 10.011C21.151 9.543 21.125 8.84533 21.125 7.918V3.056H23.725V8.438C23.725 8.75867 23.7337 9.06633 23.751 9.361C23.7683 9.595 23.8073 9.764 23.868 9.868C23.9287 9.972 24.0327 10.037 24.18 10.063C24.31 10.0977 24.518 10.115 24.804 10.115H25.103C25.1723 10.115 25.2503 10.1063 25.337 10.089V12.091C25.2763 12.0997 25.1897 12.104 25.077 12.104H24.804ZM25.883 3.056H28.483V7.918C28.483 8.76733 28.4657 9.40867 28.431 9.842C28.3963 10.2753 28.301 10.6393 28.145 10.934C27.9717 11.272 27.7073 11.532 27.352 11.714C26.9967 11.896 26.507 12.013 25.883 12.065V3.056ZM29.5676 3.056H36.4186V4.902L36.3146 5.045H29.5676V3.056ZM29.4246 10.089L32.7786 5.565H35.9246L31.1406 12H29.4246V10.089ZM33.2986 10.011H36.4186V12H31.8166L33.2986 10.011ZM42.3617 7.528C42.3617 6.774 42.3574 6.28 42.3487 6.046C42.3314 5.69067 42.2837 5.435 42.2057 5.279C42.1277 5.11433 42.002 5.01467 41.8287 4.98C41.6554 4.954 41.4084 4.941 41.0877 4.941C40.715 4.941 40.4724 4.95833 40.3597 4.993V2.965C40.4377 2.95633 40.5547 2.952 40.7107 2.952H41.0877C42.0584 2.952 42.808 3.03 43.3367 3.186C43.874 3.33333 44.264 3.58033 44.5067 3.927C44.732 4.24767 44.8707 4.668 44.9227 5.188C44.9834 5.708 45.0137 6.488 45.0137 7.528C45.0137 8.438 44.992 9.14 44.9487 9.634C44.914 10.1193 44.8187 10.5223 44.6627 10.843C44.4894 11.207 44.2207 11.4843 43.8567 11.675C43.5014 11.8657 43.003 11.9913 42.3617 12.052V7.528ZM41.0877 12.104C39.8224 12.104 38.9124 11.9653 38.3577 11.688C38.0717 11.5493 37.8464 11.363 37.6817 11.129C37.517 10.895 37.3957 10.6047 37.3177 10.258C37.2484 9.95467 37.205 9.608 37.1877 9.218C37.1704 8.81933 37.1617 8.256 37.1617 7.528C37.1617 6.618 37.179 5.92033 37.2137 5.435C37.257 4.94967 37.3567 4.54233 37.5127 4.213C37.686 3.85767 37.9504 3.58467 38.3057 3.394C38.661 3.20333 39.1637 3.07333 39.8137 3.004V7.528C39.8137 8.03933 39.8224 8.529 39.8397 8.997C39.857 9.35233 39.9004 9.61233 39.9697 9.777C40.0477 9.94167 40.1734 10.037 40.3467 10.063C40.494 10.0977 40.741 10.115 41.0877 10.115C41.443 10.115 41.6857 10.102 41.8157 10.076V12.091C41.7377 12.0997 41.6207 12.104 41.4647 12.104H41.0877ZM51.0489 7.528C51.0489 6.774 51.0445 6.28 51.0359 6.046C51.0185 5.69067 50.9709 5.435 50.8929 5.279C50.8149 5.11433 50.6892 5.01467 50.5159 4.98C50.3425 4.954 50.0955 4.941 49.7749 4.941C49.4022 4.941 49.1595 4.95833 49.0469 4.993V2.965C49.1249 2.95633 49.2419 2.952 49.3979 2.952H49.7749C50.7455 2.952 51.4952 3.03 52.0239 3.186C52.5612 3.33333 52.9512 3.58033 53.1939 3.927C53.4192 4.24767 53.5579 4.668 53.6099 5.188C53.6705 5.708 53.7009 6.488 53.7009 7.528C53.7009 8.438 53.6792 9.14 53.6359 9.634C53.6012 10.1193 53.5059 10.5223 53.3499 10.843C53.1765 11.207 52.9079 11.4843 52.5439 11.675C52.1885 11.8657 51.6902 11.9913 51.0489 12.052V7.528ZM49.7749 12.104C48.5095 12.104 47.5995 11.9653 47.0449 11.688C46.7589 11.5493 46.5335 11.363 46.3689 11.129C46.2042 10.895 46.0829 10.6047 46.0049 10.258C45.9355 9.95467 45.8922 9.608 45.8749 9.218C45.8575 8.81933 45.8489 8.256 45.8489 7.528C45.8489 6.618 45.8662 5.92033 45.9009 5.435C45.9442 4.94967 46.0439 4.54233 46.1999 4.213C46.3732 3.85767 46.6375 3.58467 46.9929 3.394C47.3482 3.20333 47.8509 3.07333 48.5009 3.004V7.528C48.5009 8.03933 48.5095 8.529 48.5269 8.997C48.5442 9.35233 48.5875 9.61233 48.6569 9.777C48.7349 9.94167 48.8605 10.037 49.0339 10.063C49.1812 10.0977 49.4282 10.115 49.7749 10.115C50.1302 10.115 50.3729 10.102 50.5029 10.076V12.091C50.4249 12.0997 50.3079 12.104 50.1519 12.104H49.7749ZM54.77 3.056H57.37V12H54.77V3.056ZM57.916 8.867V6.072L59.97 3.056H62.804L59.723 7.268L62.843 12H59.931L57.916 8.867ZM65.932 3.056H66.153L67.18 6.618L65.685 12H63.085L65.932 3.056ZM68.857 10.414H66.686L67.232 8.412H68.272L66.738 3.056H69.117L71.964 12H69.312L68.857 10.414Z" fill="white"/>
<path d="M7 4L7.67354 6.07295H9.85317L8.08981 7.3541L8.76336 9.42705L7 8.1459L5.23664 9.42705L5.91019 7.3541L4.14683 6.07295H6.32646L7 4Z" fill="white"/>
</g>
<defs>
<linearGradient id="paint0_linear_1866_1222" x1="2" y1="15.5" x2="77.6069" y2="15.5" gradientUnits="userSpaceOnUse">
<stop stop-color="#FF23AB"/>
<stop offset="0.5" stop-color="#40BEFE"/>
<stop offset="1" stop-color="#00FFD4"/>
</linearGradient>
<clipPath id="clip0_1866_1222">
<rect width="78" height="16" fill="white"/>
</clipPath>
</defs>
</svg>
