<svg width="256" height="256" viewBox="0 0 256 256" fill="none" xmlns="http://www.w3.org/2000/svg">
<path d="M148.535 202.195C150.821 205.324 155.775 203.7 155.765 199.825L155.659 158.862C155.633 148.464 162.304 139.232 172.184 135.994L211.109 123.235C214.792 122.028 214.778 116.814 211.09 115.626L172.099 103.069C162.202 99.8811 155.483 90.6835 155.456 80.2862L155.35 39.323C155.34 35.4482 150.378 33.8499 148.108 36.9906L124.116 70.1927C118.027 78.6202 107.203 82.168 97.3062 78.9806L58.3152 66.4231C54.6269 65.2352 51.5733 69.461 53.859 72.59L78.0222 105.668C84.1554 114.063 84.1848 125.454 78.0952 133.881L54.1034 167.083C51.8339 170.224 54.9093 174.434 58.5914 173.227L97.5169 160.468C107.397 157.229 118.239 160.721 124.372 169.117L148.535 202.195Z" fill="white"/>
</svg>
