<svg role="img" fill="none" height="48" viewBox="0 0 48 48" width="48" xmlns="http://www.w3.org/2000/svg" aria-label="docker icon"><circle cx="24" cy="24" r="21" stroke="currentColor" stroke-linecap="round" stroke-width="2"></circle><path d="m25.1484 23.2401h-2.543v-2.2859h2.543zm0-7.8531h-2.543v2.3351h2.543zm3.0078 5.5672h-2.543v2.2804h2.543zm-6.0102-2.7727h-2.5429v2.3133h2.5429zm3.0024 0h-2.543v2.3133h2.543zm10.6422 3.8445c-.5524-.3718-1.8321-.5086-2.811-.3226-.1258-.9242-.6398-1.7282-1.5804-2.45l-.536-.3555-.3554.5359c-.7055 1.0664-.9024 2.8274-.1422 3.9922-.3336.1805-.9899.4266-1.8594.4102h-16.718c-.3336 1.9523.2242 4.4898 1.6899 6.2344 1.4273 1.6898 3.5656 2.5429 6.3601 2.5429 6.0539 0 10.5328-2.789 12.6274-7.8531.8203.0164 2.5976.0055 3.5109-1.7391.0602-.0984.2516-.5086.3281-.6562zm-19.6492-1.0718h-2.5375v2.2804h2.5429zm3.0023 0h-2.543v2.2804h2.543zm3.0023 0h-2.5429v2.2804h2.5429zm-3.0023-2.7727h-2.543v2.3133h2.543z" fill="currentColor"></path></svg>