<svg role="img" fill="none" height="48" viewBox="0 0 48 48" width="48" xmlns="http://www.w3.org/2000/svg" aria-label="linux icon"><circle cx="24" cy="24" r="21" stroke="currentColor" stroke-linecap="round" stroke-width="2"></circle><path d="m33.735 31.3449c-.1915-.3026-.3128-.6443-.355-1-.0502-.4185-.2344-.8096-.525-1.115-.1209-.0992-.2579-.177-.405-.23.3998-1.2896.3344-2.6787-.185-3.925-.5582-1.3521-1.339-2.601-2.31-3.695-.845-1.07-1.675-2.08-1.655-3.575 0-2.28.25-6.5-3.765-6.5-.165 0-.335 0-.5 0-4.5.36-3.3 5.105-3.365 6.69-.042 1.1575-.4304 2.2758-1.115 3.21-1.2424 1.4136-2.2227 3.0373-2.895 4.795-.3075.8456-.4136 1.7513-.31 2.645-.04.035-.075.075-.115.115-.275.29-.5.65-.705.89-.2493.1953-.5374.335-.845.41-.3895.107-.7194.3666-.915.72-.0959.1905-.1424.402-.135.615.0034.2026.0201.4047.05.605.0849.3367.1003.6872.045 1.03-.265.72-.3 1.215-.115 1.575.2221.346.5907.5709 1 .61.86.18 2.025.135 2.945.62l.08-.145-.08.15c.8403.4799 1.82.6565 2.775.5.5644-.1095 1.0432-.4807 1.29-1 .62 0 1.305-.27 2.4-.33.74-.06 1.665.265 2.735.205.0249.1165.0653.2292.12.335.3576.766 1.1583 1.2244 2 1.145.9506-.1286 1.8117-.6284 2.395-1.39l-.13-.105.13.105c.67-.815 1.785-1.15 2.5-1.595.3785-.1577.6514-.4965.725-.9 0-.405-.215-.86-.765-1.465z" fill="currentColor"></path><g fill="#fff"><path d="m33.785 32.7599c0 .22-.175.39-.475.57-.6.36-1.655.67-2.335 1.5-.4692.6173-1.1625 1.025-1.93 1.135-.6334.0745-1.2414-.2721-1.5-.855-.1665-.5271-.1471-1.0954.055-1.61.1958-.5886.343-1.1923.44-1.805.0095-.5761.0714-1.1501.185-1.715.0532-.3859.2748-.7283.605-.935h.045c-.0215.5679.3111 1.0898.835 1.31.56.145 1.365-.335 1.705-.725h.2c.287-.038.577.0453.8.23.2028.2359.3315.5263.37.835.0442.3608.1783.7046.39 1 .47.49.62.84.61 1.065z"></path><path d="m20.895 34.3049c-.0076.5822-.427 1.0771-1 1.18-.7478.1123-1.5116-.0341-2.165-.415-.875-.465-1.915-.42-2.585-.56-.2619-.017-.5016-.1534-.65-.37-.113-.3715-.0735-.7727.11-1.115.0701-.3307.0615-.6732-.025-1-.0729-.2808-.0589-.5772.04-.85.1297-.2464.3562-.4276.625-.5.3059-.0728.5902-.2167.83-.42.23-.24.405-.545.605-.76.1459-.1844.3651-.2958.6-.305h.145c.3855.0939.7181.3366.925.675l.825 1.5c.3141.5315.6756 1.0336 1.08 1.5.369.3945.5945.9018.64 1.44z"></path><path d="m25.86 18.2249c-.0966-.1604-.2473-.281-.425-.34-.321-.1044-.6336-.2331-.935-.385-.3128-.2254-.6848-.354-1.07-.37-.1395.0017-.2779.0253-.41.07-.2799.1112-.5323.2818-.74.5-.0497.0447-.1032.0848-.16.12l-.425.315c-.1659.1069-.2363.3141-.17.5.1152.2799.331.5064.605.635.1902.1337.3707.2807.54.44.1913.1608.4303.2539.68.265.3134.0183.6247-.0621.89-.23.2151-.1505.4446-.2795.685-.385.4068-.0998.7499-.3718.94-.745.0512-.1253.0494-.2661-.005-.39z"></path><path d="m31.145 28.6449h-.185c.14-.445-.175-.775-1-1.155s-1.555-.34-1.67.43c-.0025.0417-.0025.0834 0 .125-.0689.0229-.1358.0513-.2.085-.3981.2496-.6709.657-.75 1.12-.1248.5756-.1967 1.1614-.215 1.75-.0613.4337-.1634.8606-.305 1.275-1.415 1-3.385 1.45-5.055.31-.115-.18-.245-.355-.375-.53l-.26-.335c.149.0049.2974-.0224.435-.08.1367-.06.2444-.1713.3-.31.0766-.3985-.0466-.8094-.33-1.1-.4671-.5827-1.0406-1.0713-1.69-1.44-.5067-.2836-.8924-.7422-1.085-1.29-.1367-.5093-.1367-1.0456 0-1.555.2635-.9273.67-1.8079 1.205-2.61.1-.075.035.135-.385.915s-1.08 2.35-.13 3.63c.0355-.9347.2423-1.8549.61-2.715.535-1.21 1.65-3.305 1.74-4.975.045.03.2.14.27.18.1972.1382.3843.2903.56.455.2316.1957.522.3083.825.32h.105c.331-.0049.6551-.0962.94-.265.2207-.1542.455-.2881.7-.4.397-.1063.7483-.3399 1-.665.4036 1.4614.953 2.8785 1.64 4.23.4923.8922.8431 1.8553 1.04 2.855.1687-.0047.3372.0155.5.06.61-1.575-.5-3.275-1.03-3.745-.205-.205-.215-.295-.115-.29.7562.7031 1.2972 1.6065 1.56 2.605.1251.5176.1251 1.0575 0 1.575l.195.09c.965.475 1.325.885 1.155 1.45z"></path><path d="m26.345 16.4199c.0061.2784-.0485.5548-.16.81-.0574.1374-.1349.2655-.23.38l-.095-.04c-.0978-.0451-.198-.0852-.3-.12l-.235-.085c.0776-.0651.1435-.1428.195-.23.0574-.1399.0896-.2889.095-.44.0048-.1461-.0172-.2918-.065-.43-.036-.1262-.103-.2414-.195-.335-.0753-.0776-.177-.124-.285-.13-.1022.0011-.2002.0404-.275.11-.0998.0858-.1756.1961-.22.32-.0579.1415-.09.2922-.095.445-.0078.0848-.0078.1702 0 .255-.2073-.0941-.4233-.1678-.645-.22 0-.075 0-.155 0-.24-.0089-.2888.0475-.576.165-.84.0972-.2374.256-.4445.46-.6.1778-.1419.3976-.2211.625-.225.2209-.0047.4372.0639.615.195.2077.1487.369.3533.465.59.1182.2448.1797.5132.18.785v.025z"></path><path d="m22.905 16.7149-.085.03c-.1489.0463-.2903.1137-.42.2.0126-.0912.0126-.1837 0-.275-.0124-.12-.041-.2377-.085-.35-.0391-.0967-.0988-.1838-.175-.255-.0524-.0506-.1222-.0792-.195-.08-.0797.009-.1521.0507-.2.115-.0642.0835-.1071.1813-.125.285-.0287.1228-.0371.2495-.025.375.0117.1201.0403.2379.085.35.0389.0981.1006.1855.18.255l.035.03-.19.14-.14.105c-.1253-.1238-.2239-.2718-.29-.435-.105-.2214-.1678-.4605-.185-.705-.0181-.2399.0107-.4811.085-.71.0531-.1993.1564-.3818.3-.53.1149-.1266.2744-.2036.445-.215h.04c.156.0018.3065.0585.425.16.1606.1333.2845.3054.36.5.0992.2189.1553.4549.165.695.0075.1032.0075.2068 0 .31z"></path></g></svg>