<svg width="256" height="256" viewBox="0 0 256 256" fill="none" xmlns="http://www.w3.org/2000/svg">
<style>
    path {
      fill: #020617;
    }
    @media (prefers-color-scheme: dark) {
      path {
        fill: #ffffff;
      }
    }
</style>
<g clip-path="url(#clip0_1890_1162)">
<path d="M145.34 204.546C149.797 210.648 159.458 207.481 159.438 199.925L159.326 156.605C159.317 153.053 161.596 149.899 164.972 148.792L206.137 135.299C213.317 132.946 213.291 122.779 206.099 120.463L164.864 107.183C161.483 106.094 159.187 102.951 159.178 99.3986L159.066 56.0788C159.047 48.5228 149.369 45.4061 144.944 51.5306L119.572 86.6429C117.491 89.5223 113.793 90.7344 110.412 89.6454L69.1775 76.3654C61.9852 74.049 56.0308 82.2894 60.4879 88.3909L86.0413 123.371C88.1368 126.24 88.1468 130.132 86.0662 133.011L60.6941 168.123C56.2686 174.248 62.2656 182.457 69.4458 180.104L110.611 166.611C113.986 165.504 117.691 166.697 119.786 169.566L145.34 204.546Z" stroke="black" stroke-width="0.4"/>
</g>
<defs>
<clipPath id="clip0_1890_1162">
<rect width="256" height="256" fill="white"/>
</clipPath>
</defs>
</svg>
