<svg width="256" height="256" viewBox="0 0 256 256" fill="none" xmlns="http://www.w3.org/2000/svg">
<g clip-path="url(#clip0_2180_1166)">
<path d="M44.6787 75.6631C42.3933 72.5342 45.4467 68.3086 49.1348 69.4961L59.2148 72.7422C59.3435 73.1135 59.5304 73.4813 59.7881 73.834L85.4102 108.909C91.5432 117.305 91.573 128.696 85.4834 137.123L60.043 172.33C57.7735 175.471 60.8483 179.68 64.5303 178.474L105.807 164.944C115.687 161.706 126.529 165.198 132.662 173.594L155.726 205.166L155.753 215.447C155.763 219.322 150.808 220.946 148.522 217.817L120.857 179.946C114.724 171.551 103.883 168.059 94.0029 171.297L49.4365 185.905C45.7544 187.112 42.679 182.902 44.9482 179.762L72.417 141.748C78.5067 133.321 78.4769 121.93 72.3438 113.534L44.6787 75.6631ZM118.629 81.4561C116.655 81.9373 114.616 82.1655 112.562 82.1328C114.2 81.246 115.743 80.1647 117.153 78.9004L118.629 81.4561Z" fill="#020617"/>
<path d="M164.535 198.195C166.821 201.324 171.775 199.7 171.765 195.825L171.659 154.862C171.633 144.464 178.304 135.232 188.184 131.994L227.109 119.235C230.792 118.028 230.778 112.814 227.09 111.626L188.099 99.0685C178.202 95.8811 171.483 86.6835 171.456 76.2862L171.35 35.323C171.34 31.4482 166.378 29.8499 164.108 32.9906L140.116 66.1927C134.027 74.6202 123.203 78.168 113.306 74.9806L74.3152 62.4231C70.6269 61.2352 67.5733 65.461 69.859 68.59L94.0222 101.668C100.155 110.063 100.185 121.454 94.0952 129.881L70.1034 163.083C67.8339 166.224 70.9093 170.434 74.5914 169.227L113.517 156.468C123.397 153.229 134.239 156.721 140.372 165.117L164.535 198.195Z" fill="#020617"/>
</g>
<defs>
<clipPath id="clip0_2180_1166">
<rect width="256" height="256" fill="white"/>
</clipPath>
</defs>
</svg>
